<svg width="162" height="174" viewBox="0 0 162 174" fill="none" xmlns="http://www.w3.org/2000/svg">
<path d="M24.5625 161.562C24.5625 163.604 24.9583 165.333 25.75 166.75C26.5417 168.125 27.5 169.25 28.625 170.125C29.7917 171 30.9375 171.667 32.0625 172.125C33.1875 172.583 34.1458 172.896 34.9375 173.062C35.7292 173.229 36.125 173.312 36.125 173.312C34.7917 173.312 33.4583 173.312 32.125 173.312C29.4167 173.312 26.7083 173.312 24 173.312C22.125 173.312 20.25 173.312 18.375 173.312C17.4167 173.312 16.4792 173.312 15.5625 173.312C15.0208 173.312 14.4792 173.333 13.9375 173.375C11.9792 173.5 10.0625 173.375 8.1875 173C5.5625 172.25 3.5625 170.833 2.1875 168.75C0.8125 166.667 0.104167 164.312 0.0625 161.688C0.0625 159.979 0.0625 158.271 0.0625 156.562C0.0625 155.729 0.0625 154.875 0.0625 154C0.0625 143.875 0.0625 133.729 0.0625 123.562C0.0625 107.146 0.0625 90.7292 0.0625 74.3125C4.77083 74.7292 9.29167 74 13.625 72.125C17.9583 70.25 21.6042 67.5 24.5625 63.875C24.5625 66.5417 24.5625 69.2083 24.5625 71.875C24.5625 74.5417 24.5625 77.2083 24.5625 79.875C24.5625 82.5417 24.5625 85.2083 24.5625 87.875C24.5625 98.9583 24.5625 110.042 24.5625 121.125C24.5625 127.125 24.5625 133.125 24.5625 139.125C24.5625 142.125 24.5625 145.125 24.5625 148.125C24.5625 152.625 24.5625 157.104 24.5625 161.562ZM24.5625 31.5C24.5625 28.1667 23.375 25.3333 21 23C18.6667 20.625 15.7708 19.375 12.3125 19.25C8.89583 19.3333 6.02083 20.5417 3.6875 22.875C1.35417 25.2083 0.145833 28.0833 0.0625 31.5C0.145833 34.9583 1.375 37.875 3.75 40.25C6.125 42.625 8.97917 43.8125 12.3125 43.8125C15.6458 43.8125 18.5208 42.6042 20.9375 40.1875C23.3542 37.7708 24.5625 34.875 24.5625 31.5ZM150.312 161.438C150.312 163.479 150.708 165.208 151.5 166.625C152.292 168 153.25 169.125 154.375 170C155.542 170.875 156.688 171.542 157.812 172C158.938 172.458 159.896 172.771 160.688 172.938C161.479 173.104 161.875 173.188 161.875 173.188H136.75C136.167 173.188 135.604 173.146 135.062 173.062C129.938 171.979 126.875 168.854 125.875 163.688C125.875 163.729 125.854 163.75 125.812 163.75C122.312 166.042 118.604 167.917 114.688 169.375C112.604 170.125 110.479 170.729 108.312 171.188C106.646 171.604 104.938 171.917 103.188 172.125C102.188 172.25 101.188 172.333 100.188 172.375C91.4792 172.917 83.125 171.521 75.125 168.188C67.125 164.812 60.2917 159.708 54.625 152.875C47.5 144.083 43.4375 134.042 42.4375 122.75C41.6458 111.292 44.1875 100.604 50.0625 90.6875C55.8958 81.2292 63.8542 74.1458 73.9375 69.4375C80.5208 66.4792 87.3958 64.875 94.5625 64.625C96.2292 64.5833 97.875 64.6042 99.5 64.6875C99.625 64.7292 100.125 64.7917 101 64.875C101.917 64.9583 102.938 65.0833 104.062 65.25C105.188 65.375 106.125 65.5 106.875 65.625C113.792 67.0417 120.104 69.6458 125.812 73.4375V10.6875C125.812 10.6875 126.604 10.7083 128.188 10.75C129.812 10.7917 131.854 10.5833 134.312 10.125C136.812 9.625 139.458 8.625 142.25 7.125C145.083 5.58333 147.771 3.3125 150.312 0.3125V161.438ZM106.562 169.062C113.646 167.562 120.062 164.771 125.812 160.688V151.875V76.4375C122.146 73.8542 118.208 71.7917 114 70.25C109.5 68.625 104.896 67.625 100.188 67.25C98.5625 67.125 96.9583 67.0833 95.375 67.125C90 70.625 85.3958 74.9792 81.5625 80.1875C74.6042 89.8542 70.7708 100.583 70.0625 112.375C69.3542 124.167 71.8125 135.312 77.4375 145.812C82.7708 155.479 90.3333 162.875 100.125 168C100.125 168 100.146 168 100.188 168C101.271 168.583 102.396 169.104 103.562 169.562C104.562 169.438 105.562 169.271 106.562 169.062Z" fill="#D9D9D9"/>
</svg>
